<svg version="1.1" xmlns="http://www.w3.org/2000/svg" viewBox="0 0 316.8125 269.25390625" width="100" height="50">
  <!-- svg-source:excalidraw -->
  
  <defs>
    <style class="style-fonts">
      @font-face {
        font-family: "Virgil";
        src: url("https://excalidraw.com/Virgil.woff2");
      }
      @font-face {
        font-family: "Cascadia";
        src: url("https://excalidraw.com/Cascadia.woff2");
      }
      @font-face {
        font-family: "Assistant";
        src: url("https://excalidraw.com/Assistant-Regular.woff2");
      }
    </style>
    
  </defs>
  <g transform="translate(163.6640625 80.8203125) rotate(0 -5.2578125 15.830078125)" stroke="none"><path fill="#1e1e1e" d="M -4.93,-1.63 Q -4.93,-1.63 -4.20,-3.94 -3.46,-6.25 -3.07,-8.82 -2.67,-11.40 -2.49,-14.82 -2.31,-18.25 -2.28,-22.11 -2.26,-25.98 -2.25,-28.58 -2.23,-31.18 -2.53,-34.88 -2.83,-38.58 -3.27,-42.69 -3.71,-46.80 -4.15,-50.15 -4.60,-53.49 -5.06,-56.47 -5.52,-59.45 -5.98,-62.31 -6.43,-65.17 -6.63,-66.88 -6.83,-68.59 -6.78,-69.37 -6.72,-70.16 -6.47,-70.91 -6.23,-71.65 -5.81,-72.32 -5.40,-72.99 -4.84,-73.54 -4.27,-74.09 -3.59,-74.48 -2.91,-74.88 -2.16,-75.11 -1.41,-75.33 -0.62,-75.37 0.16,-75.40 0.93,-75.25 1.70,-75.10 2.41,-74.77 3.12,-74.43 3.74,-73.94 4.35,-73.45 4.83,-72.82 5.30,-72.20 5.62,-71.47 5.93,-70.75 6.06,-69.98 6.19,-69.20 7.57,-65.85 8.95,-62.49 10.05,-59.52 11.16,-56.54 12.39,-53.67 13.62,-50.80 14.61,-48.62 15.60,-46.43 16.69,-44.46 17.79,-42.49 19.86,-39.81 21.92,-37.12 23.92,-35.79 25.91,-34.46 28.13,-34.71 30.36,-34.97 31.92,-37.38 33.49,-39.79 34.15,-41.96 34.82,-44.14 35.31,-46.46 35.80,-48.77 36.12,-51.61 36.45,-54.45 36.64,-57.03 36.82,-59.62 36.85,-62.29 36.88,-64.96 36.88,-67.53 36.87,-70.10 36.94,-70.82 37.01,-71.53 37.21,-72.36 37.42,-73.19 37.81,-73.95 38.21,-74.70 38.78,-75.34 39.34,-75.98 40.05,-76.47 40.75,-76.96 41.55,-77.26 42.35,-77.56 43.19,-77.67 44.04,-77.77 44.89,-77.67 45.74,-77.56 46.54,-77.26 47.34,-76.96 48.04,-76.47 48.74,-75.99 49.31,-75.35 49.88,-74.71 50.27,-73.95 50.67,-73.20 50.88,-72.37 51.08,-71.54 51.08,-70.68 51.08,-69.83 50.61,-72.05 50.14,-74.27 50.91,-71.21 51.67,-68.15 52.08,-64.74 52.49,-61.32 52.82,-59.09 53.15,-56.85 53.79,-53.98 54.43,-51.12 55.29,-47.92 56.16,-44.73 56.92,-42.72 57.69,-40.71 58.64,-38.78 59.60,-36.86 60.78,-34.77 61.97,-32.68 63.61,-30.31 65.26,-27.94 66.95,-25.92 68.64,-23.90 70.54,-22.74 72.45,-21.58 73.32,-24.00 74.18,-26.41 74.46,-28.59 74.73,-30.77 74.90,-33.08 75.08,-35.39 75.19,-38.18 75.30,-40.97 75.20,-43.54 75.10,-46.11 74.74,-48.80 74.37,-51.49 78.97,-50.95 83.57,-50.41 85.83,-52.67 88.08,-54.92 88.50,-52.58 88.92,-50.24 89.48,-46.74 90.04,-43.24 90.71,-40.57 91.37,-37.90 92.45,-34.61 93.52,-31.32 94.85,-28.82 96.17,-26.32 97.71,-24.55 99.26,-22.77 101.62,-22.54 103.98,-22.31 105.83,-23.41 107.69,-24.51 109.77,-26.44 111.85,-28.37 113.47,-30.74 115.10,-33.10 116.62,-36.29 118.15,-39.48 119.44,-42.63 120.73,-45.78 121.73,-48.75 122.74,-51.72 123.33,-53.96 123.93,-56.20 124.47,-58.33 125.01,-60.45 125.52,-62.64 126.02,-64.83 126.29,-66.26 126.56,-67.69 126.82,-68.52 127.07,-69.35 127.51,-70.10 127.96,-70.85 128.57,-71.47 129.18,-72.09 129.92,-72.54 130.66,-73.00 131.49,-73.26 132.32,-73.53 133.19,-73.59 134.06,-73.64 134.91,-73.49 135.77,-73.34 136.56,-72.99 137.36,-72.64 138.05,-72.11 138.74,-71.58 139.28,-70.90 139.82,-70.22 140.18,-69.42 140.54,-68.63 140.71,-67.78 140.87,-66.93 140.82,-66.06 140.78,-65.19 141.44,-61.90 142.11,-58.61 142.27,-56.04 142.43,-53.47 142.60,-50.40 142.76,-47.32 142.97,-43.82 143.17,-40.32 143.41,-36.28 143.64,-32.24 143.96,-27.53 144.29,-22.81 144.72,-19.39 145.15,-15.98 145.59,-13.06 146.02,-10.14 146.38,-7.38 146.74,-4.63 146.81,-0.41 146.88,3.79 147.05,6.98 147.22,10.16 146.86,14.52 146.51,18.88 146.27,22.18 146.03,25.47 145.70,28.38 145.38,31.29 144.90,34.02 144.43,36.75 143.81,39.44 143.18,42.13 141.55,46.36 139.92,50.58 138.81,53.70 137.71,56.82 135.50,61.15 133.29,65.48 130.87,69.48 128.44,73.49 125.77,76.91 123.11,80.33 120.00,83.25 116.90,86.17 113.21,88.52 109.52,90.88 104.92,92.73 100.33,94.59 96.38,95.85 92.44,97.11 88.50,98.09 84.55,99.06 78.05,100.05 71.54,101.04 65.74,101.74 59.94,102.43 54.60,102.93 49.26,103.42 43.58,103.77 37.90,104.12 31.75,104.37 25.60,104.62 15.69,104.77 5.77,104.92 -1.95,104.99 -9.69,105.05 -16.74,105.07 -23.78,105.09 -30.30,105.10 -36.82,105.11 -46.09,104.88 -55.35,104.65 -62.11,104.35 -68.86,104.04 -76.62,103.49 -84.39,102.93 -91.98,102.19 -99.57,101.45 -106.40,100.54 -113.23,99.63 -117.72,98.91 -122.21,98.18 -125.60,97.68 -129.00,97.18 -132.88,96.32 -136.76,95.46 -139.31,95.05 -141.85,94.63 -145.74,93.95 -149.63,93.26 -153.85,89.94 -158.06,86.62 -158.05,85.89 -158.04,85.17 -157.80,84.49 -157.56,83.81 -157.12,83.24 -156.67,82.67 -156.07,82.27 -155.47,81.87 -154.77,81.69 -154.07,81.50 -153.35,81.55 -152.63,81.60 -151.96,81.88 -151.29,82.15 -150.75,82.63 -150.20,83.10 -149.84,83.73 -149.48,84.35 -149.33,85.06 -149.18,85.76 -149.27,86.48 -149.36,87.20 -149.67,87.85 -149.98,88.50 -150.48,89.02 -150.99,89.54 -151.63,89.87 -152.27,90.20 -152.99,90.31 -153.70,90.41 -154.41,90.29 -155.12,90.16 -155.76,89.82 -156.39,89.47 -156.88,88.94 -157.37,88.41 -157.67,87.75 -157.96,87.09 -158.03,86.37 -158.10,85.65 -157.94,84.95 -157.77,84.24 -157.39,83.63 -157.01,83.01 -156.45,82.55 -155.90,82.09 -155.22,81.83 -154.55,81.58 -153.83,81.55 -153.10,81.52 -152.41,81.72 -151.72,81.92 -151.12,82.33 -150.53,82.75 -150.10,83.33 -149.67,83.91 -149.45,84.60 -149.23,85.28 -149.23,85.28 -149.23,85.28 -148.26,85.26 -147.29,85.24 -143.74,86.59 -140.18,87.94 -137.80,88.75 -135.42,89.57 -131.63,90.46 -127.84,91.36 -124.61,92.17 -121.37,92.99 -116.95,93.70 -112.53,94.42 -105.80,95.31 -99.06,96.21 -91.53,96.94 -84.01,97.67 -76.32,98.22 -68.63,98.77 -61.92,99.07 -55.22,99.37 -46.03,99.59 -36.83,99.81 -30.32,99.79 -23.80,99.77 -16.77,99.74 -9.74,99.70 -2.02,99.62 5.69,99.55 15.52,99.38 25.36,99.20 31.45,98.92 37.54,98.64 43.13,98.26 48.72,97.87 53.97,97.32 59.22,96.77 64.91,96.01 70.61,95.24 76.86,94.19 83.12,93.13 86.87,92.24 90.62,91.35 94.32,90.19 98.02,89.04 102.08,87.30 106.14,85.56 109.31,83.51 112.49,81.46 115.19,78.91 117.90,76.36 120.20,73.24 122.50,70.12 124.53,66.24 126.56,62.36 128.29,58.19 130.01,54.01 131.13,51.05 132.25,48.09 133.33,43.96 134.42,39.82 135.15,37.38 135.87,34.94 136.50,32.51 137.12,30.08 137.61,27.41 138.10,24.74 138.45,21.67 138.80,18.60 138.74,14.56 138.69,10.51 138.59,7.44 138.50,4.38 138.00,0.38 137.49,-3.61 137.26,-6.26 137.03,-8.90 136.67,-11.80 136.30,-14.69 135.74,-18.11 135.18,-21.53 134.19,-26.12 133.21,-30.70 132.25,-34.71 131.30,-38.72 130.56,-42.24 129.82,-45.76 129.24,-48.87 128.66,-51.99 128.28,-54.42 127.90,-56.85 127.47,-59.68 127.04,-62.50 126.80,-65.09 126.56,-67.69 126.82,-68.52 127.07,-69.35 127.51,-70.10 127.96,-70.85 128.57,-71.47 129.18,-72.09 129.92,-72.54 130.66,-73.00 131.49,-73.26 132.32,-73.53 133.19,-73.59 134.05,-73.64 134.91,-73.49 135.77,-73.34 136.56,-72.99 137.36,-72.64 138.05,-72.11 138.74,-71.58 139.28,-70.90 139.82,-70.22 140.18,-69.43 140.54,-68.63 140.71,-67.78 140.87,-66.93 140.82,-66.06 140.78,-65.19 140.47,-63.95 140.16,-62.72 139.45,-59.90 138.74,-57.09 138.09,-54.87 137.44,-52.64 136.63,-49.99 135.81,-47.34 134.67,-44.23 133.53,-41.11 132.21,-37.61 130.88,-34.10 129.59,-31.23 128.29,-28.37 126.52,-25.34 124.74,-22.31 122.26,-19.23 119.78,-16.16 117.56,-14.42 115.34,-12.68 111.83,-10.72 108.32,-8.76 104.84,-8.16 101.36,-7.56 99.12,-7.97 96.88,-8.38 94.81,-9.35 92.74,-10.31 91.08,-11.65 89.43,-12.99 87.64,-15.06 85.85,-17.12 84.28,-19.66 82.71,-22.20 80.97,-25.95 79.23,-29.69 78.02,-33.39 76.80,-37.09 75.99,-40.43 75.18,-43.78 74.47,-47.35 73.76,-50.93 73.55,-53.97 73.34,-57.02 75.70,-59.56 78.06,-62.10 83.22,-59.59 88.38,-57.08 88.77,-54.74 89.16,-52.40 89.46,-49.85 89.76,-47.30 89.89,-44.06 90.02,-40.82 89.91,-37.58 89.80,-34.35 89.65,-31.75 89.51,-29.16 89.24,-26.63 88.97,-24.09 88.40,-21.58 87.82,-19.06 86.77,-16.60 85.71,-14.13 84.36,-12.43 83.01,-10.72 81.18,-9.28 79.34,-7.83 76.13,-7.15 72.92,-6.47 70.66,-7.00 68.39,-7.52 66.10,-8.64 63.81,-9.77 61.97,-10.99 60.13,-12.21 58.56,-13.98 57.00,-15.76 55.53,-17.68 54.06,-19.60 52.15,-22.45 50.25,-25.30 48.82,-28.02 47.39,-30.74 46.19,-33.32 44.99,-35.90 44.14,-38.38 43.28,-40.85 42.28,-44.31 41.27,-47.77 40.52,-51.05 39.77,-54.33 39.21,-56.80 38.65,-59.27 38.38,-63.06 38.11,-66.85 37.56,-69.19 37.01,-71.53 37.21,-72.36 37.42,-73.19 37.81,-73.95 38.21,-74.70 38.78,-75.34 39.34,-75.98 40.05,-76.47 40.75,-76.96 41.55,-77.26 42.35,-77.56 43.19,-77.67 44.04,-77.77 44.89,-77.67 45.74,-77.56 46.54,-77.26 47.34,-76.96 48.04,-76.47 48.74,-75.99 49.31,-75.35 49.88,-74.71 50.27,-73.95 50.67,-73.20 50.88,-72.37 51.08,-71.54 51.08,-70.68 51.08,-69.83 50.96,-69.23 50.84,-68.64 50.77,-66.04 50.69,-63.44 50.59,-61.03 50.50,-58.61 50.28,-55.87 50.06,-53.12 49.69,-49.61 49.31,-46.10 48.71,-43.38 48.10,-40.67 47.54,-38.55 46.99,-36.43 45.51,-33.29 44.03,-30.16 42.05,-27.80 40.08,-25.43 37.90,-23.98 35.73,-22.53 32.48,-21.68 29.23,-20.83 26.46,-21.17 23.70,-21.50 21.52,-22.40 19.34,-23.30 16.87,-25.07 14.41,-26.84 12.18,-29.39 9.94,-31.94 8.44,-33.99 6.94,-36.05 5.49,-38.36 4.04,-40.67 2.76,-43.05 1.47,-45.44 0.11,-48.62 -1.25,-51.80 -2.41,-54.92 -3.57,-58.04 -4.53,-60.74 -5.50,-63.45 -6.16,-66.02 -6.83,-68.59 -6.78,-69.37 -6.72,-70.16 -6.47,-70.91 -6.23,-71.65 -5.82,-72.32 -5.40,-72.99 -4.84,-73.54 -4.27,-74.09 -3.59,-74.48 -2.91,-74.88 -2.16,-75.11 -1.41,-75.33 -0.62,-75.37 0.15,-75.40 0.93,-75.25 1.70,-75.10 2.41,-74.77 3.12,-74.43 3.74,-73.94 4.35,-73.45 4.83,-72.82 5.30,-72.20 5.62,-71.48 5.93,-70.75 6.06,-69.98 6.19,-69.20 6.20,-68.03 6.21,-66.86 6.43,-63.96 6.66,-61.06 7.00,-57.94 7.34,-54.82 7.63,-51.44 7.92,-48.06 8.23,-45.56 8.54,-43.05 8.79,-39.35 9.03,-35.65 9.11,-33.49 9.19,-31.33 9.27,-28.61 9.35,-25.89 9.36,-23.40 9.36,-20.92 9.09,-17.41 8.83,-13.91 8.56,-11.65 8.28,-9.39 7.40,-6.17 6.51,-2.95 5.72,-0.66 4.93,1.63 4.66,2.19 4.39,2.76 4.00,3.25 3.60,3.73 3.10,4.11 2.60,4.49 2.03,4.74 1.45,4.98 0.84,5.08 0.22,5.19 -0.40,5.14 -1.02,5.09 -1.62,4.89 -2.21,4.70 -2.74,4.36 -3.27,4.03 -3.71,3.58 -4.14,3.13 -4.46,2.59 -4.77,2.04 -4.95,1.44 -5.12,0.84 -5.15,0.22 -5.18,-0.40 -5.05,-1.01 -4.93,-1.63 -4.93,-1.63 L -4.93,-1.63 Z"></path></g><g transform="translate(33.91015625 119.453125) rotate(0 20.69921875 69.900390625)" stroke="none"><path fill="#1e1e1e" d="M 1.71,-0.19 Q 1.71,-0.19 1.94,1.37 2.18,2.95 2.41,4.26 2.63,5.57 2.84,6.98 3.04,8.38 3.24,11.00 3.43,13.61 3.84,17.84 4.25,22.07 4.84,27.85 5.44,33.62 5.91,38.12 6.39,42.62 6.85,46.88 7.32,51.14 7.77,55.33 8.23,59.53 8.91,65.71 9.60,71.89 10.19,77.11 10.77,82.33 11.61,89.18 12.44,96.02 13.07,100.80 13.69,105.58 14.25,109.29 14.82,113.01 15.50,117.13 16.18,121.26 16.76,124.71 17.34,128.16 17.74,130.54 18.14,132.92 18.44,134.57 18.74,136.23 19.05,137.62 19.37,139.01 19.40,139.11 19.44,139.22 19.43,139.45 19.42,139.68 19.36,139.90 19.30,140.12 19.19,140.32 19.07,140.52 18.91,140.69 18.76,140.85 18.56,140.98 18.37,141.10 18.15,141.18 17.93,141.25 17.71,141.27 17.48,141.29 17.25,141.26 17.02,141.22 16.81,141.13 16.60,141.05 16.41,140.91 16.23,140.77 16.08,140.60 15.93,140.42 15.83,140.21 15.73,140.01 15.69,139.78 15.64,139.56 15.51,138.18 15.38,136.80 15.34,134.74 15.30,132.68 15.15,129.70 15.00,126.71 14.69,122.95 14.38,119.19 14.11,116.31 13.85,113.44 13.26,109.31 12.68,105.18 11.93,100.39 11.19,95.60 10.62,91.94 10.06,88.28 9.57,85.13 9.07,81.98 8.46,77.34 7.85,72.70 7.27,67.78 6.69,62.87 6.40,58.23 6.11,53.59 6.01,49.16 5.91,44.73 5.97,41.84 6.04,38.95 6.41,36.02 6.78,33.09 7.17,30.99 7.55,28.89 8.30,26.34 9.06,23.79 9.66,21.94 10.27,20.09 10.91,18.43 11.55,16.77 12.65,14.74 13.74,12.70 15.09,10.61 16.44,8.53 17.51,7.01 18.58,5.49 19.89,4.09 21.19,2.70 22.16,1.77 23.13,0.84 24.46,0.12 25.79,-0.58 27.36,-1.09 28.93,-1.60 30.72,-1.17 32.52,-0.74 34.09,0.74 35.66,2.23 36.55,3.60 37.43,4.97 38.32,6.84 39.20,8.71 39.89,10.34 40.58,11.97 41.14,13.57 41.70,15.17 42.11,17.83 42.52,20.49 42.70,22.63 42.88,24.76 42.91,26.82 42.93,28.88 42.32,31.98 41.71,35.09 40.90,37.42 40.09,39.75 38.37,42.24 36.66,44.73 35.14,46.33 33.62,47.93 31.22,49.28 28.82,50.63 27.17,51.40 25.52,52.16 23.31,52.59 21.10,53.02 19.01,53.18 16.93,53.33 15.13,53.30 13.33,53.27 12.22,53.27 11.11,53.26 9.24,52.97 7.36,52.69 6.13,51.54 4.90,50.40 4.66,50.28 4.42,50.17 4.22,50.00 4.01,49.84 3.85,49.63 3.69,49.42 3.59,49.17 3.49,48.93 3.44,48.67 3.40,48.41 3.42,48.15 3.44,47.88 3.52,47.63 3.61,47.38 3.75,47.16 3.89,46.93 4.08,46.75 4.27,46.57 4.50,46.43 4.72,46.30 4.98,46.23 5.23,46.15 5.49,46.14 5.76,46.13 6.02,46.18 6.28,46.23 5.07,46.60 3.86,46.97 4.12,46.73 4.38,46.48 4.71,46.34 5.03,46.20 5.38,46.16 5.74,46.13 6.08,46.21 6.43,46.29 6.73,46.48 7.03,46.66 7.26,46.94 7.48,47.21 7.61,47.54 7.73,47.87 7.75,48.23 7.76,48.58 7.66,48.92 7.56,49.26 7.36,49.55 7.16,49.84 6.87,50.05 6.59,50.26 6.25,50.37 5.91,50.48 5.56,50.48 5.20,50.47 4.87,50.35 4.54,50.24 4.26,50.02 3.98,49.80 3.78,49.50 3.59,49.21 3.50,48.86 3.41,48.52 3.43,48.17 3.46,47.81 3.59,47.49 3.73,47.16 3.96,46.89 4.19,46.63 4.50,46.45 4.81,46.27 5.15,46.20 5.50,46.13 5.85,46.17 6.20,46.21 6.52,46.37 6.84,46.52 7.10,46.77 7.35,47.01 7.51,47.33 7.67,47.64 7.73,48.00 7.78,48.35 7.72,48.69 7.65,49.04 6.28,49.72 4.90,50.40 4.66,50.28 4.42,50.17 4.22,50.00 4.01,49.84 3.85,49.63 3.69,49.42 3.59,49.17 3.49,48.93 3.44,48.67 3.40,48.41 3.42,48.15 3.44,47.88 3.52,47.63 3.61,47.38 3.75,47.16 3.89,46.93 4.08,46.75 4.27,46.57 4.50,46.43 4.72,46.30 4.98,46.23 5.23,46.15 5.49,46.14 5.76,46.13 6.02,46.18 6.28,46.23 8.18,47.72 10.08,49.20 11.79,49.61 13.49,50.01 15.11,50.16 16.72,50.31 18.62,50.19 20.51,50.07 22.42,49.68 24.33,49.29 25.88,48.71 27.43,48.14 29.47,47.01 31.51,45.88 32.85,44.45 34.19,43.03 35.65,40.88 37.12,38.74 37.77,36.61 38.43,34.49 38.88,31.72 39.34,28.96 39.25,27.08 39.17,25.20 38.86,23.24 38.55,21.28 37.98,18.99 37.41,16.70 36.88,15.26 36.36,13.81 35.70,12.38 35.05,10.95 34.08,9.39 33.12,7.83 31.84,6.00 30.57,4.17 29.63,3.50 28.69,2.82 27.05,3.24 25.41,3.66 24.46,4.31 23.50,4.97 22.28,6.16 21.05,7.35 19.96,8.71 18.87,10.07 17.62,12.07 16.38,14.07 15.39,16.04 14.40,18.00 13.68,19.52 12.95,21.04 12.27,22.79 11.60,24.54 10.89,26.96 10.17,29.38 9.79,31.40 9.41,33.43 9.05,36.22 8.69,39.01 8.63,41.84 8.57,44.67 8.67,49.04 8.78,53.42 9.07,57.99 9.37,62.55 9.96,67.45 10.54,72.34 11.17,76.94 11.79,81.54 12.31,84.69 12.83,87.84 13.43,91.49 14.02,95.15 14.82,99.95 15.61,104.75 16.26,108.93 16.92,113.11 17.27,115.99 17.62,118.87 18.06,122.66 18.49,126.45 18.80,129.44 19.11,132.43 19.34,134.55 19.58,136.67 19.51,137.94 19.44,139.22 19.43,139.45 19.42,139.68 19.36,139.90 19.30,140.12 19.19,140.32 19.07,140.52 18.91,140.69 18.76,140.85 18.56,140.98 18.37,141.10 18.15,141.18 17.93,141.25 17.71,141.27 17.48,141.29 17.25,141.26 17.02,141.22 16.81,141.13 16.60,141.05 16.41,140.91 16.23,140.77 16.08,140.60 15.93,140.42 15.83,140.21 15.73,140.01 15.69,139.78 15.64,139.56 15.64,139.45 15.65,139.34 15.71,137.97 15.77,136.60 15.65,134.98 15.53,133.36 15.13,130.98 14.73,128.60 14.14,125.15 13.56,121.69 12.87,117.55 12.18,113.41 11.60,109.67 11.02,105.93 10.38,101.14 9.75,96.36 8.89,89.50 8.04,82.64 7.43,77.42 6.83,72.20 6.11,66.03 5.39,59.85 4.89,55.66 4.40,51.48 3.87,47.22 3.35,42.97 2.79,38.48 2.24,33.99 1.53,28.23 0.82,22.46 0.26,18.25 -0.28,14.03 -0.68,11.43 -1.08,8.83 -1.18,7.44 -1.28,6.04 -1.36,4.70 -1.45,3.37 -1.58,1.78 -1.71,0.19 -1.71,-0.01 -1.71,-0.21 -1.65,-0.42 -1.60,-0.62 -1.51,-0.80 -1.41,-0.98 -1.27,-1.14 -1.13,-1.29 -0.96,-1.41 -0.79,-1.53 -0.59,-1.60 -0.40,-1.67 -0.19,-1.70 0.01,-1.72 0.21,-1.69 0.42,-1.67 0.61,-1.59 0.81,-1.52 0.98,-1.40 1.15,-1.28 1.28,-1.12 1.42,-0.96 1.52,-0.78 1.61,-0.60 1.66,-0.39 1.71,-0.19 1.71,-0.19 L 1.71,-0.19 Z"></path></g><g transform="translate(97.15625 156.62109375) rotate(0 -5.578125 10.361328125)" stroke="none"><path fill="#1e1e1e" d="M -1.30,2.30 Q -1.30,2.30 -2.19,1.83 -3.09,1.35 -4.78,1.41 -6.48,1.47 -7.62,1.96 -8.77,2.45 -10.05,3.54 -11.32,4.64 -12.20,6.06 -13.08,7.47 -13.62,9.44 -14.16,11.42 -14.04,13.37 -13.92,15.32 -13.40,16.40 -12.88,17.49 -11.71,18.28 -10.53,19.07 -9.06,19.13 -7.58,19.19 -6.54,18.86 -5.49,18.53 -4.05,17.82 -2.61,17.11 -1.46,16.30 -0.30,15.50 1.10,13.71 2.50,11.92 2.73,10.01 2.95,8.10 2.15,6.59 1.34,5.07 0.23,4.19 -0.87,3.30 -1.62,2.85 -2.37,2.40 -2.64,2.14 -2.90,1.88 -3.10,1.56 -3.30,1.24 -3.41,0.89 -3.53,0.53 -3.55,0.16 -3.58,-0.20 -3.52,-0.57 -3.46,-0.93 -3.31,-1.28 -3.16,-1.62 -2.93,-1.91 -2.71,-2.21 -2.42,-2.44 -2.12,-2.68 -1.79,-2.83 -1.45,-2.99 -1.08,-3.06 -0.72,-3.13 -0.35,-3.11 0.02,-3.10 0.37,-2.99 0.73,-2.88 1.05,-2.69 1.37,-2.51 1.08,-2.68 0.79,-2.86 1.21,-2.57 1.62,-2.29 1.93,-1.90 2.23,-1.50 2.39,-1.02 2.55,-0.55 2.55,-0.05 2.55,0.44 2.39,0.92 2.23,1.39 1.92,1.79 1.62,2.19 1.21,2.47 0.79,2.75 0.31,2.88 -0.16,3.01 -0.66,2.99 -1.16,2.96 -1.62,2.77 -2.09,2.59 -2.47,2.27 -2.85,1.94 -3.11,1.51 -3.37,1.08 -3.47,0.60 -3.58,0.11 -3.53,-0.38 -3.47,-0.88 -3.26,-1.33 -3.05,-1.78 -2.71,-2.15 -2.36,-2.51 -1.92,-2.75 -1.48,-2.98 -0.99,-3.06 -0.49,-3.14 -0.00,-3.06 0.48,-2.98 0.93,-2.74 1.37,-2.51 1.71,-2.15 2.06,-1.78 2.27,-1.33 2.48,-0.88 2.53,-0.38 2.58,0.11 2.48,0.60 2.37,1.09 2.11,1.51 1.85,1.94 1.47,2.27 1.09,2.59 0.62,2.78 0.16,2.96 -0.33,2.99 -0.83,3.01 -1.60,2.71 -2.37,2.40 -2.64,2.14 -2.90,1.88 -3.10,1.56 -3.30,1.24 -3.41,0.89 -3.53,0.53 -3.55,0.16 -3.58,-0.20 -3.52,-0.57 -3.46,-0.93 -3.31,-1.28 -3.16,-1.62 -2.93,-1.91 -2.71,-2.21 -2.42,-2.44 -2.13,-2.68 -1.79,-2.83 -1.45,-2.99 -1.08,-3.06 -0.72,-3.13 -0.35,-3.11 0.02,-3.10 0.37,-2.99 0.73,-2.88 1.05,-2.69 1.37,-2.51 2.65,-1.56 3.93,-0.61 5.06,0.63 6.18,1.88 7.13,3.87 8.08,5.85 8.25,6.99 8.42,8.13 8.37,9.81 8.31,11.49 7.82,13.07 7.34,14.64 6.33,16.45 5.33,18.25 4.34,19.20 3.36,20.14 1.88,21.42 0.40,22.69 -0.54,23.20 -1.49,23.70 -2.48,24.13 -3.47,24.55 -4.51,24.87 -5.56,25.20 -7.51,25.30 -9.45,25.41 -10.70,25.23 -11.95,25.04 -13.51,24.22 -15.07,23.40 -16.04,22.56 -17.02,21.73 -17.96,20.05 -18.89,18.38 -19.19,17.30 -19.49,16.22 -19.74,14.57 -19.99,12.93 -19.88,11.65 -19.78,10.38 -19.48,8.63 -19.18,6.87 -18.73,5.79 -18.28,4.70 -17.51,3.28 -16.74,1.85 -16.01,1.03 -15.27,0.21 -14.45,-0.49 -13.62,-1.20 -11.44,-2.46 -9.27,-3.72 -8.20,-3.97 -7.13,-4.22 -5.81,-4.32 -4.48,-4.42 -2.46,-3.89 -0.44,-3.35 0.42,-2.83 1.30,-2.30 1.55,-2.11 1.81,-1.92 2.01,-1.68 2.22,-1.43 2.36,-1.14 2.50,-0.86 2.56,-0.54 2.63,-0.23 2.62,0.08 2.61,0.39 2.53,0.70 2.44,1.01 2.28,1.29 2.13,1.56 1.91,1.80 1.69,2.03 1.42,2.20 1.15,2.38 0.85,2.48 0.55,2.58 0.23,2.61 -0.08,2.64 -0.39,2.59 -0.71,2.54 -1.00,2.42 -1.30,2.30 -1.30,2.30 L -1.30,2.30 Z"></path></g><g transform="translate(105.55078125 143.875) rotate(0 16.896484375 18.837890625)" stroke="none"><path fill="#1e1e1e" d="M 1.87,-0.05 Q 1.87,-0.05 1.97,1.35 2.07,2.75 2.20,3.86 2.32,4.97 2.44,6.84 2.55,8.70 2.74,10.22 2.93,11.75 3.10,14.06 3.27,16.38 3.55,18.91 3.82,21.45 4.05,23.94 4.27,26.43 4.43,28.55 4.58,30.67 4.74,32.29 4.90,33.91 5.13,35.51 5.36,37.10 5.16,38.36 4.95,39.61 3.73,40.21 2.51,40.81 1.43,40.31 0.35,39.81 -0.19,38.35 -0.73,36.88 -1.00,35.45 -1.27,34.01 -1.31,32.66 -1.36,31.31 -1.34,30.09 -1.33,28.87 -1.09,27.07 -0.86,25.28 -0.37,23.06 0.10,20.85 0.40,19.21 0.71,17.57 1.28,15.69 1.85,13.81 2.31,12.42 2.78,11.02 3.57,9.50 4.36,7.98 5.35,6.59 6.34,5.19 7.65,3.92 8.97,2.64 10.47,1.59 11.97,0.53 13.58,-0.25 15.19,-1.04 16.88,-1.62 18.58,-2.19 20.11,-2.52 21.63,-2.86 22.91,-3.00 24.19,-3.14 25.50,-3.00 26.82,-2.85 27.97,-2.51 29.13,-2.16 32.09,-0.51 35.04,1.14 35.37,1.42 35.69,1.71 35.90,2.08 36.11,2.45 36.20,2.87 36.28,3.29 36.22,3.71 36.17,4.14 35.98,4.52 35.79,4.91 35.49,5.21 35.19,5.52 34.81,5.71 34.43,5.90 34.01,5.96 33.58,6.02 33.16,5.95 32.74,5.87 32.37,5.66 31.99,5.45 31.70,5.14 31.42,4.82 31.24,4.43 31.07,4.03 31.03,3.61 31.00,3.18 31.10,2.77 31.20,2.35 31.43,1.99 31.65,1.63 31.99,1.36 32.32,1.09 32.72,0.94 33.12,0.78 33.55,0.77 33.97,0.76 34.38,0.88 34.79,1.00 35.14,1.25 35.49,1.50 35.75,1.84 36.00,2.19 36.13,2.60 36.25,3.00 36.25,3.43 36.24,3.86 36.09,4.26 35.95,4.67 35.68,5.00 35.41,5.34 35.06,5.57 34.70,5.80 34.28,5.91 33.87,6.01 33.44,5.98 33.01,5.95 32.62,5.78 32.23,5.62 32.23,5.62 32.23,5.62 30.51,4.49 28.79,3.36 27.38,2.65 25.97,1.95 24.22,1.74 22.46,1.54 21.22,1.73 19.97,1.92 18.54,2.41 17.10,2.90 15.79,3.52 14.48,4.14 13.26,4.99 12.04,5.85 11.00,6.83 9.96,7.82 9.13,8.95 8.29,10.09 7.62,11.31 6.94,12.54 6.46,13.74 5.98,14.95 5.56,16.66 5.15,18.38 4.87,19.94 4.60,21.49 4.46,23.62 4.32,25.76 4.25,27.37 4.17,28.98 4.14,30.07 4.10,31.17 4.13,32.29 4.15,33.42 3.97,35.01 3.79,36.59 2.53,36.89 1.26,37.19 1.40,35.64 1.53,34.09 1.52,32.52 1.51,30.95 1.29,28.87 1.06,26.79 0.73,24.36 0.40,21.93 -0.02,19.37 -0.45,16.82 -0.83,14.51 -1.20,12.20 -1.35,10.63 -1.49,9.06 -1.72,7.12 -1.95,5.18 -1.93,4.02 -1.92,2.86 -1.90,1.45 -1.87,0.05 -1.85,-0.17 -1.83,-0.39 -1.76,-0.61 -1.68,-0.82 -1.56,-1.01 -1.44,-1.20 -1.27,-1.36 -1.10,-1.51 -0.91,-1.62 -0.71,-1.73 -0.49,-1.79 -0.27,-1.85 -0.05,-1.86 0.17,-1.87 0.39,-1.82 0.61,-1.77 0.82,-1.67 1.02,-1.57 1.19,-1.42 1.37,-1.28 1.50,-1.10 1.63,-0.91 1.72,-0.70 1.81,-0.49 1.84,-0.27 1.87,-0.05 1.87,-0.05 L 1.87,-0.05 Z"></path></g><g transform="translate(152.9921875 129.8203125) rotate(0 -11.455078125 22.818359375)" stroke="none"><path fill="#1e1e1e" d="M 1.84,0.50 Q 1.84,0.50 1.27,2.41 0.70,4.31 0.32,5.84 -0.04,7.36 -0.38,8.73 -0.72,10.10 -1.50,12.22 -2.28,14.34 -2.90,16.18 -3.52,18.01 -4.34,20.33 -5.15,22.66 -6.05,25.14 -6.96,27.62 -7.57,29.35 -8.19,31.08 -8.63,32.43 -9.07,33.78 -9.46,34.93 -9.85,36.09 -10.48,37.50 -11.12,38.91 -11.61,39.95 -12.10,40.99 -12.72,42.07 -13.34,43.15 -13.93,44.05 -14.52,44.94 -15.26,45.96 -16.00,46.99 -17.58,47.42 -19.15,47.85 -20.35,46.96 -21.55,46.08 -21.99,44.43 -22.42,42.78 -22.59,41.59 -22.76,40.40 -23.09,38.78 -23.42,37.15 -23.84,35.45 -24.27,33.74 -24.82,32.17 -25.37,30.60 -25.72,29.36 -26.06,28.13 -25.70,26.58 -25.34,25.03 -24.03,24.09 -22.72,23.14 -21.08,22.65 -19.45,22.17 -18.19,21.83 -16.94,21.50 -15.79,21.25 -14.64,21.00 -12.76,20.48 -10.88,19.95 -9.73,19.63 -8.58,19.30 -7.19,18.84 -5.80,18.37 -3.79,17.72 -1.79,17.07 -1.27,16.95 -0.76,16.83 -0.23,16.89 0.29,16.94 0.77,17.15 1.25,17.37 1.64,17.73 2.03,18.09 2.28,18.56 2.54,19.02 2.63,19.54 2.72,20.07 2.64,20.59 2.56,21.11 2.31,21.58 2.07,22.06 1.69,22.42 1.31,22.79 0.83,23.02 0.35,23.25 -0.16,23.31 -0.69,23.37 -1.21,23.26 -1.73,23.15 -2.18,22.89 -2.64,22.62 -2.99,22.22 -3.33,21.82 -3.53,21.33 -3.74,20.84 -3.77,20.31 -3.80,19.78 -3.67,19.27 -3.53,18.76 -3.24,18.32 -2.95,17.87 -2.53,17.55 -2.11,17.22 -1.61,17.05 -1.11,16.88 -0.58,16.87 -0.05,16.86 0.44,17.03 0.95,17.19 1.37,17.51 1.80,17.82 2.10,18.26 2.40,18.70 2.55,19.20 2.70,19.71 2.67,20.24 2.65,20.77 2.46,21.27 2.27,21.76 1.93,22.17 1.59,22.57 1.14,22.85 0.69,23.13 0.69,23.13 0.69,23.13 -1.53,23.82 -3.75,24.51 -5.23,24.96 -6.70,25.41 -7.77,25.77 -8.83,26.12 -10.93,26.80 -13.04,27.47 -14.79,27.94 -16.54,28.42 -17.95,28.59 -19.35,28.76 -19.03,29.90 -18.70,31.03 -18.38,32.46 -18.05,33.90 -17.81,34.96 -17.57,36.03 -17.30,37.80 -17.03,39.57 -16.98,41.49 -16.94,43.40 -18.13,43.23 -19.33,43.06 -18.27,41.88 -17.22,40.69 -16.02,38.90 -14.82,37.11 -14.15,35.84 -13.49,34.57 -12.96,33.51 -12.43,32.46 -11.84,31.19 -11.25,29.92 -10.58,28.26 -9.92,26.60 -9.12,24.12 -8.32,21.64 -7.62,19.27 -6.93,16.90 -6.36,15.06 -5.78,13.22 -5.20,11.09 -4.62,8.97 -4.17,7.65 -3.73,6.34 -3.26,4.84 -2.80,3.35 -2.32,1.42 -1.84,-0.50 -1.75,-0.71 -1.66,-0.92 -1.53,-1.11 -1.39,-1.30 -1.22,-1.45 -1.04,-1.59 -0.83,-1.70 -0.63,-1.80 -0.40,-1.85 -0.18,-1.90 0.04,-1.89 0.27,-1.88 0.50,-1.82 0.72,-1.76 0.92,-1.65 1.12,-1.54 1.29,-1.38 1.46,-1.22 1.58,-1.03 1.71,-0.84 1.78,-0.62 1.86,-0.40 1.88,-0.18 1.90,0.04 1.87,0.27 1.84,0.50 1.84,0.50 L 1.84,0.50 Z"></path></g><g transform="translate(184.5625 135.05078125) rotate(0 -18.16015625 18.625)" stroke="none"><path fill="#1e1e1e" d="M -2.50,0.83 Q -2.50,0.83 -2.90,-0.32 -3.30,-1.48 -4.20,-2.34 -5.10,-3.20 -5.98,-1.62 -6.86,-0.04 -7.35,0.95 -7.84,1.94 -8.29,2.99 -8.75,4.04 -9.68,6.12 -10.60,8.19 -11.50,10.87 -12.40,13.55 -13.02,15.54 -13.64,17.53 -14.58,20.92 -15.52,24.32 -16.25,26.61 -16.98,28.90 -17.89,31.30 -18.80,33.69 -19.37,35.21 -19.94,36.73 -20.42,37.88 -20.91,39.03 -21.43,39.98 -21.95,40.93 -23.22,42.40 -24.48,43.86 -26.21,44.74 -27.93,45.62 -29.37,45.86 -30.81,46.10 -32.68,45.83 -34.56,45.55 -35.68,44.72 -36.80,43.89 -37.77,42.38 -38.74,40.87 -39.07,39.54 -39.39,38.20 -39.44,36.91 -39.49,35.61 -39.09,34.30 -38.70,32.99 -37.47,31.71 -36.24,30.44 -35.00,29.60 -33.76,28.76 -31.76,28.00 -29.76,27.25 -29.22,27.24 -28.67,27.22 -28.14,27.38 -27.62,27.54 -27.17,27.85 -26.73,28.17 -26.41,28.62 -26.08,29.06 -25.92,29.58 -25.76,30.11 -25.77,30.65 -25.78,31.20 -25.97,31.72 -26.16,32.23 -26.50,32.66 -26.84,33.09 -27.30,33.39 -27.76,33.68 -28.29,33.82 -28.82,33.95 -29.37,33.91 -29.92,33.87 -30.42,33.65 -30.93,33.44 -31.34,33.08 -31.75,32.71 -32.02,32.23 -32.29,31.76 -32.39,31.22 -32.50,30.68 -32.43,30.14 -32.36,29.60 -32.11,29.10 -31.87,28.61 -31.49,28.22 -31.10,27.83 -30.61,27.59 -30.12,27.34 -29.58,27.27 -29.03,27.19 -28.50,27.29 -27.96,27.39 -27.48,27.66 -27.00,27.93 -26.63,28.34 -26.27,28.74 -26.05,29.24 -25.83,29.75 -25.78,30.29 -25.73,30.84 -25.87,31.37 -26.00,31.90 -26.29,32.37 -26.58,32.83 -27.01,33.18 -27.43,33.52 -27.95,33.71 -28.46,33.90 -28.46,33.90 -28.46,33.90 -29.71,34.44 -30.97,34.97 -32.00,35.76 -33.04,36.55 -32.92,37.79 -32.81,39.03 -32.01,39.84 -31.20,40.64 -29.84,40.62 -28.48,40.59 -27.43,40.07 -26.37,39.55 -25.34,38.41 -24.31,37.28 -23.71,36.33 -23.11,35.38 -22.45,34.00 -21.79,32.62 -21.01,30.29 -20.23,27.97 -19.65,25.70 -19.07,23.43 -18.31,19.99 -17.55,16.55 -17.15,14.45 -16.75,12.36 -16.12,9.44 -15.49,6.52 -14.88,4.13 -14.28,1.74 -13.79,0.53 -13.31,-0.66 -12.77,-1.82 -12.23,-2.99 -10.90,-5.04 -9.57,-7.09 -7.80,-8.06 -6.02,-9.04 -4.68,-8.85 -3.34,-8.66 -1.86,-7.70 -0.39,-6.74 0.67,-4.96 1.74,-3.18 2.12,-2.01 2.50,-0.83 2.56,-0.52 2.63,-0.21 2.61,0.10 2.60,0.42 2.51,0.72 2.43,1.03 2.27,1.30 2.11,1.58 1.89,1.81 1.67,2.04 1.40,2.21 1.13,2.38 0.83,2.48 0.53,2.58 0.21,2.61 -0.10,2.63 -0.41,2.58 -0.73,2.53 -1.02,2.41 -1.31,2.28 -1.57,2.09 -1.82,1.90 -2.02,1.66 -2.23,1.41 -2.36,1.12 -2.50,0.83 -2.50,0.83 L -2.50,0.83 Z"></path></g><g transform="translate(155.33984375 155.515625) rotate(0 13.716796875 -2.375)" stroke="none"><path fill="#1e1e1e" d="M -0.41,-2.28 Q -0.41,-2.28 1.00,-2.55 2.41,-2.82 3.96,-3.11 5.51,-3.40 6.73,-3.67 7.95,-3.94 9.66,-4.24 11.37,-4.53 13.16,-4.83 14.95,-5.13 16.74,-5.39 18.53,-5.66 20.02,-5.91 21.51,-6.17 24.15,-6.62 26.79,-7.06 27.17,-7.05 27.55,-7.03 27.91,-6.89 28.27,-6.75 28.57,-6.51 28.87,-6.26 29.07,-5.94 29.27,-5.61 29.36,-5.23 29.44,-4.86 29.41,-4.48 29.37,-4.09 29.21,-3.74 29.06,-3.39 28.79,-3.11 28.53,-2.83 28.20,-2.64 27.86,-2.46 27.48,-2.39 27.10,-2.32 26.72,-2.38 26.34,-2.44 26.00,-2.62 25.66,-2.79 25.39,-3.07 25.12,-3.34 24.95,-3.69 24.79,-4.04 24.74,-4.42 24.70,-4.80 24.77,-5.18 24.85,-5.56 25.05,-5.89 25.24,-6.22 25.53,-6.47 25.82,-6.72 26.18,-6.87 26.53,-7.02 26.92,-7.04 27.30,-7.07 27.67,-6.97 28.04,-6.87 28.37,-6.66 28.69,-6.45 28.92,-6.14 29.16,-5.84 29.29,-5.48 29.41,-5.11 29.42,-4.73 29.42,-4.34 29.30,-3.98 29.19,-3.61 28.96,-3.30 28.73,-2.99 28.41,-2.78 28.10,-2.56 27.73,-2.45 27.36,-2.34 27.36,-2.34 27.36,-2.34 24.78,-2.10 22.20,-1.86 20.71,-1.65 19.23,-1.44 17.51,-1.12 15.79,-0.80 14.03,-0.41 12.28,-0.02 10.56,0.36 8.85,0.75 7.62,0.95 6.40,1.15 4.82,1.47 3.25,1.79 1.83,2.03 0.41,2.28 0.13,2.29 -0.14,2.31 -0.41,2.26 -0.69,2.21 -0.94,2.09 -1.20,1.98 -1.42,1.81 -1.64,1.63 -1.81,1.41 -1.98,1.19 -2.10,0.94 -2.21,0.68 -2.26,0.41 -2.31,0.13 -2.29,-0.14 -2.28,-0.42 -2.19,-0.68 -2.11,-0.95 -1.96,-1.19 -1.82,-1.43 -1.62,-1.63 -1.42,-1.82 -1.18,-1.97 -0.94,-2.11 -0.68,-2.20 -0.41,-2.28 -0.41,-2.28 L -0.41,-2.28 Z"></path></g><g transform="translate(192.7109375 161.96875) rotate(0 -6.71875 5.07421875)" stroke="none"><path fill="#1e1e1e" d="M -1.05,2.37 Q -1.05,2.37 -2.17,1.89 -3.29,1.41 -4.55,1.52 -5.82,1.63 -7.10,2.65 -8.38,3.67 -9.43,5.24 -10.49,6.81 -10.68,7.91 -10.88,9.02 -9.52,8.81 -8.16,8.60 -6.70,8.29 -5.24,7.99 -4.08,7.00 -2.92,6.00 -3.45,3.95 -3.99,1.91 -4.15,1.52 -4.31,1.14 -4.37,0.73 -4.43,0.32 -4.39,-0.08 -4.35,-0.49 -4.22,-0.88 -4.08,-1.27 -3.86,-1.62 -3.63,-1.97 -3.33,-2.25 -3.03,-2.54 -2.67,-2.74 -2.31,-2.94 -1.91,-3.05 -1.51,-3.17 -1.10,-3.18 -0.68,-3.19 -0.28,-3.10 0.12,-3.02 0.49,-2.83 0.86,-2.65 1.18,-2.39 1.50,-2.12 1.74,-1.79 1.99,-1.46 0.67,-2.32 -0.64,-3.19 -0.11,-3.04 0.42,-2.89 0.88,-2.58 1.34,-2.28 1.68,-1.83 2.02,-1.39 2.20,-0.87 2.38,-0.34 2.38,0.20 2.39,0.76 2.21,1.29 2.04,1.81 1.70,2.26 1.37,2.70 0.91,3.02 0.45,3.33 -0.07,3.48 -0.61,3.63 -1.16,3.61 -1.72,3.58 -2.24,3.38 -2.75,3.17 -3.18,2.81 -3.60,2.46 -3.89,1.98 -4.18,1.51 -4.30,0.97 -4.42,0.42 -4.37,-0.12 -4.31,-0.67 -4.08,-1.18 -3.85,-1.68 -3.47,-2.09 -3.09,-2.49 -2.60,-2.76 -2.11,-3.02 -1.56,-3.11 -1.01,-3.20 -0.46,-3.12 0.08,-3.03 0.57,-2.77 1.06,-2.51 1.44,-2.11 1.83,-1.71 2.06,-1.21 2.30,-0.70 2.36,-0.15 2.43,0.39 2.31,0.93 2.19,1.48 1.91,1.95 1.62,2.43 1.20,2.79 0.78,3.16 0.26,3.36 -0.24,3.57 -2.12,2.74 -3.99,1.91 -4.15,1.52 -4.31,1.14 -4.37,0.73 -4.43,0.32 -4.39,-0.08 -4.35,-0.49 -4.22,-0.88 -4.08,-1.27 -3.86,-1.62 -3.63,-1.97 -3.33,-2.25 -3.03,-2.54 -2.67,-2.74 -2.31,-2.94 -1.91,-3.05 -1.51,-3.17 -1.10,-3.18 -0.68,-3.19 -0.28,-3.10 0.12,-3.02 0.49,-2.83 0.86,-2.65 1.18,-2.39 1.50,-2.12 1.74,-1.79 1.99,-1.46 2.47,0.01 2.96,1.49 3.45,3.09 3.93,4.69 3.70,6.17 3.47,7.65 2.75,8.97 2.03,10.29 1.30,11.09 0.57,11.88 -1.28,13.02 -3.13,14.16 -5.15,14.62 -7.17,15.07 -8.65,14.98 -10.13,14.89 -11.26,14.68 -12.39,14.47 -13.67,13.70 -14.96,12.94 -15.68,12.00 -16.41,11.07 -16.60,9.24 -16.79,7.40 -16.13,5.72 -15.47,4.05 -13.94,1.79 -12.41,-0.46 -11.32,-1.45 -10.22,-2.44 -8.40,-3.12 -6.59,-3.79 -5.21,-3.90 -3.83,-4.00 -2.51,-3.70 -1.19,-3.40 -0.06,-2.89 1.05,-2.37 1.32,-2.21 1.59,-2.05 1.81,-1.83 2.04,-1.61 2.20,-1.34 2.36,-1.07 2.46,-0.77 2.55,-0.47 2.57,-0.16 2.59,0.14 2.54,0.45 2.48,0.76 2.35,1.04 2.23,1.33 2.03,1.58 1.84,1.83 1.60,2.02 1.35,2.22 1.06,2.35 0.78,2.48 0.47,2.53 0.16,2.59 -0.14,2.57 -0.45,2.56 -0.75,2.46 -1.05,2.37 -1.05,2.37 L -1.05,2.37 Z"></path></g><g transform="translate(208.92578125 134.0078125) rotate(0 1.595703125 18.892578125)" stroke="none"><path fill="#1e1e1e" d="M 1.81,1.04 Q 1.81,1.04 0.80,2.68 -0.20,4.33 -1.17,6.11 -2.15,7.89 -2.66,9.19 -3.18,10.48 -3.57,11.64 -3.95,12.79 -4.56,14.54 -5.17,16.28 -5.49,17.59 -5.80,18.90 -6.20,20.64 -6.59,22.39 -6.86,24.24 -7.13,26.09 -7.16,27.33 -7.18,28.57 -7.13,29.80 -7.08,31.04 -6.63,32.24 -6.18,33.45 -5.18,34.09 -4.17,34.74 -2.55,34.76 -0.92,34.78 0.51,34.44 1.94,34.10 2.99,33.73 4.03,33.36 5.58,32.60 7.13,31.85 8.73,30.65 10.34,29.45 10.73,29.17 11.12,28.90 11.59,28.76 12.05,28.62 12.53,28.64 13.01,28.65 13.46,28.82 13.91,28.99 14.29,29.30 14.66,29.61 14.92,30.01 15.17,30.42 15.29,30.89 15.40,31.36 15.36,31.84 15.31,32.32 15.12,32.76 14.92,33.20 14.60,33.56 14.27,33.92 13.85,34.15 13.43,34.38 12.96,34.47 12.48,34.56 12.01,34.49 11.53,34.42 11.10,34.20 10.67,33.98 10.33,33.64 9.99,33.30 9.78,32.86 9.57,32.43 9.51,31.95 9.45,31.47 9.54,31.00 9.64,30.53 9.88,30.11 10.12,29.69 10.48,29.37 10.84,29.05 11.29,28.87 11.73,28.68 12.21,28.64 12.69,28.61 13.16,28.73 13.63,28.85 14.03,29.11 14.43,29.38 14.73,29.75 15.03,30.13 15.20,30.59 15.36,31.04 15.37,31.52 15.38,32.00 15.23,32.46 15.09,32.92 14.80,33.31 14.52,33.70 14.52,33.70 14.52,33.70 12.24,35.37 9.96,37.04 7.99,37.93 6.02,38.83 3.66,39.55 1.31,40.27 0.22,40.39 -0.87,40.51 -2.14,40.50 -3.41,40.49 -5.02,40.02 -6.62,39.55 -8.10,38.31 -9.58,37.08 -10.12,36.16 -10.66,35.25 -11.03,33.14 -11.41,31.02 -11.34,29.64 -11.28,28.25 -11.11,26.94 -10.94,25.63 -10.74,23.60 -10.54,21.58 -10.19,19.66 -9.83,17.75 -9.39,16.41 -8.95,15.07 -8.39,13.16 -7.83,11.25 -7.28,10.06 -6.74,8.87 -6.08,7.57 -5.42,6.26 -4.53,4.31 -3.64,2.35 -2.72,0.65 -1.81,-1.04 -1.66,-1.24 -1.51,-1.44 -1.31,-1.60 -1.11,-1.76 -0.89,-1.87 -0.66,-1.98 -0.41,-2.03 -0.17,-2.08 0.08,-2.07 0.33,-2.06 0.57,-1.99 0.81,-1.92 1.03,-1.79 1.25,-1.67 1.43,-1.49 1.61,-1.32 1.75,-1.11 1.88,-0.89 1.96,-0.65 2.04,-0.42 2.06,-0.16 2.09,0.08 2.05,0.33 2.00,0.58 1.91,0.81 1.81,1.04 1.81,1.04 L 1.81,1.04 Z"></path></g><g transform="translate(222.0078125 158.78125) rotate(0 -1.189453125 5.373046875)" stroke="none"><path fill="#1e1e1e" d="M 2.42,0.71 Q 2.42,0.71 1.98,2.15 1.54,3.58 1.23,5.37 0.93,7.15 0.59,9.05 0.25,10.95 0.15,11.26 0.05,11.56 -0.11,11.84 -0.28,12.11 -0.51,12.33 -0.74,12.55 -1.01,12.72 -1.29,12.88 -1.60,12.97 -1.90,13.06 -2.22,13.08 -2.55,13.09 -2.86,13.03 -3.17,12.97 -3.47,12.83 -3.76,12.69 -4.01,12.49 -4.26,12.29 -4.45,12.04 -4.64,11.78 -4.77,11.49 -4.90,11.19 -4.95,10.88 -5.01,10.56 -4.98,10.24 -4.96,9.92 -4.41,11.27 -3.87,12.62 -4.18,12.32 -4.49,12.02 -4.68,11.64 -4.88,11.26 -4.94,10.83 -5.01,10.40 -4.93,9.98 -4.86,9.56 -4.65,9.18 -4.45,8.80 -4.13,8.51 -3.81,8.22 -3.42,8.04 -3.03,7.86 -2.60,7.82 -2.17,7.78 -1.75,7.88 -1.33,7.98 -0.97,8.20 -0.60,8.43 -0.32,8.76 -0.05,9.09 0.09,9.49 0.25,9.90 0.27,10.33 0.29,10.76 0.16,11.17 0.04,11.58 -0.19,11.94 -0.44,12.29 -0.78,12.55 -1.13,12.80 -1.54,12.94 -1.95,13.07 -2.38,13.06 -2.81,13.06 -3.22,12.91 -3.62,12.77 -3.96,12.51 -4.30,12.24 -4.54,11.88 -4.78,11.52 -4.89,11.11 -5.00,10.69 -4.97,10.26 -4.94,9.83 -4.77,9.43 -4.61,9.04 -4.33,8.71 -4.04,8.39 -3.67,8.17 -3.30,7.95 -2.88,7.86 -2.46,7.78 -2.03,7.83 -1.60,7.88 -0.67,9.42 0.25,10.95 0.15,11.26 0.05,11.56 -0.11,11.83 -0.28,12.11 -0.51,12.33 -0.74,12.55 -1.01,12.72 -1.29,12.88 -1.60,12.97 -1.90,13.06 -2.22,13.08 -2.55,13.09 -2.86,13.03 -3.17,12.97 -3.47,12.83 -3.76,12.69 -4.01,12.49 -4.26,12.29 -4.45,12.04 -4.64,11.78 -4.77,11.49 -4.90,11.19 -4.95,10.88 -5.01,10.56 -4.98,10.24 -4.96,9.92 -4.62,8.02 -4.27,6.12 -3.76,4.14 -3.24,2.16 -2.83,0.72 -2.42,-0.71 -2.30,-0.99 -2.18,-1.27 -1.99,-1.52 -1.81,-1.76 -1.57,-1.95 -1.33,-2.14 -1.06,-2.27 -0.78,-2.40 -0.48,-2.46 -0.18,-2.52 0.11,-2.50 0.42,-2.49 0.71,-2.40 1.00,-2.32 1.26,-2.16 1.53,-2.01 1.75,-1.79 1.96,-1.58 2.13,-1.32 2.29,-1.06 2.38,-0.77 2.48,-0.48 2.50,-0.18 2.52,0.11 2.47,0.41 2.42,0.71 2.42,0.71 L 2.42,0.71 Z"></path></g><g transform="translate(220.78515625 145.984375) rotate(0 0 -0.0625)" stroke="none"><path fill="#1e1e1e" d="M 2.12,-0.66 Q 2.12,-0.66 2.15,-0.13 2.18,0.40 1.96,0.88 1.74,1.36 1.32,1.69 0.91,2.02 0.38,2.12 -0.13,2.21 -0.64,2.05 -1.14,1.90 -1.52,1.52 -1.90,1.14 -2.05,0.64 -2.21,0.13 -2.12,-0.38 -2.02,-0.91 -1.69,-1.32 -1.36,-1.74 -0.88,-1.96 -0.39,-2.18 0.13,-2.15 0.66,-2.11 1.11,-1.84 1.57,-1.56 1.84,-1.11 L 2.12,-0.66 Z"></path></g><g transform="translate(248.44140625 147.94921875) rotate(0 -0.05078125 6.939453125)" stroke="none"><path fill="#1e1e1e" d="M 0.05,2.60 Q 0.05,2.60 -1.27,2.63 -2.60,2.66 -4.07,3.11 -5.54,3.56 -6.73,4.26 -7.91,4.96 -8.86,5.99 -9.81,7.03 -10.57,8.64 -11.33,10.26 -11.44,11.76 -11.55,13.25 -10.93,14.33 -10.32,15.42 -9.41,15.98 -8.50,16.55 -7.36,16.78 -6.22,17.02 -5.11,17.06 -4.00,17.11 -2.27,16.83 -0.54,16.55 0.80,16.07 2.15,15.60 3.21,15.04 4.28,14.48 5.19,13.87 6.10,13.27 7.23,12.29 8.36,11.32 9.31,10.11 10.26,8.91 10.90,7.24 11.54,5.56 11.52,3.92 11.49,2.28 10.64,0.77 9.80,-0.73 8.50,-1.55 7.20,-2.37 6.03,-2.73 4.85,-3.09 3.35,-3.34 1.84,-3.58 0.72,-3.58 -0.40,-3.59 -1.67,-3.36 -2.93,-3.13 -4.95,-2.19 -6.96,-1.26 -8.31,0.06 -9.66,1.38 -10.02,1.61 -10.37,1.84 -10.79,1.95 -11.20,2.05 -11.62,2.02 -12.04,1.99 -12.43,1.82 -12.82,1.65 -13.14,1.37 -13.45,1.09 -13.66,0.73 -13.87,0.36 -13.95,-0.05 -14.04,-0.46 -13.98,-0.88 -13.93,-1.30 -13.74,-1.68 -13.55,-2.06 -13.25,-2.36 -12.96,-2.66 -12.58,-2.85 -12.20,-3.04 -11.78,-3.10 -11.36,-3.16 -10.95,-3.08 -10.53,-3.01 -10.16,-2.80 -9.79,-2.59 -9.51,-2.28 -9.22,-1.97 -9.05,-1.58 -8.88,-1.19 -8.85,-0.77 -8.81,-0.35 -8.91,0.06 -9.01,0.47 -9.24,0.82 -9.46,1.18 -9.79,1.45 -10.12,1.72 -10.52,1.86 -10.92,2.01 -11.34,2.02 -11.76,2.04 -12.17,1.92 -12.57,1.79 -12.92,1.55 -13.26,1.30 -13.51,0.96 -13.76,0.62 -13.89,0.21 -14.01,-0.18 -14.00,-0.60 -13.99,-1.03 -13.85,-1.43 -13.70,-1.82 -13.44,-2.15 -13.18,-2.49 -13.18,-2.49 -13.18,-2.49 -11.34,-4.05 -9.50,-5.62 -7.92,-6.50 -6.35,-7.38 -5.09,-7.72 -3.83,-8.05 -2.06,-8.37 -0.29,-8.69 1.08,-8.63 2.46,-8.57 4.42,-8.38 6.37,-8.19 8.15,-7.66 9.93,-7.13 11.42,-6.23 12.91,-5.34 13.63,-4.50 14.36,-3.67 14.97,-2.61 15.58,-1.55 16.21,0.13 16.83,1.83 16.90,3.42 16.97,5.02 16.72,6.10 16.48,7.18 16.05,8.29 15.62,9.41 14.93,10.62 14.23,11.84 13.09,13.47 11.94,15.11 10.55,16.50 9.16,17.89 8.03,18.63 6.89,19.37 5.59,20.08 4.28,20.79 2.47,21.61 0.65,22.43 -0.48,22.65 -1.63,22.86 -2.87,22.97 -4.11,23.09 -5.73,23.07 -7.34,23.06 -8.42,22.83 -9.50,22.59 -10.50,22.18 -11.51,21.77 -12.70,21.00 -13.89,20.23 -14.63,19.38 -15.37,18.52 -16.09,17.22 -16.81,15.92 -17.03,13.43 -17.26,10.93 -16.98,9.51 -16.71,8.08 -16.25,7.05 -15.79,6.01 -15.02,4.64 -14.24,3.27 -12.54,1.68 -10.84,0.09 -9.73,-0.53 -8.61,-1.16 -6.98,-1.62 -5.34,-2.09 -4.03,-2.31 -2.73,-2.54 -1.39,-2.57 -0.05,-2.60 0.25,-2.57 0.56,-2.54 0.86,-2.43 1.15,-2.33 1.41,-2.15 1.68,-1.98 1.89,-1.75 2.10,-1.52 2.26,-1.25 2.41,-0.97 2.49,-0.67 2.57,-0.37 2.58,-0.05 2.59,0.25 2.52,0.56 2.45,0.86 2.31,1.14 2.17,1.42 1.97,1.66 1.76,1.90 1.51,2.09 1.26,2.27 0.97,2.39 0.67,2.51 0.36,2.55 0.05,2.60 0.05,2.60 L 0.05,2.60 Z"></path></g></svg>